# xmcd
#
# Track frame offsets: 
#        150
#        26348
#        45415
#        68118
#        93322
#        115551
#        138691
#        165106
#        188741
#        211996
#
# Disc length: 3067 seconds
#
# Revision: 0
# Processed by: cddbd v1.5.2PL0 Copyright (c) Steve Scherf et al.
# Submitted via: ExactAudioCopy v1.0b3
#
DISCID=770bf90a
DTITLE=Giao Linh - Dam Me
DYEAR=1996
DGENRE=
TTITLE0=Lan va Diep 2
TTITLE1=Truong cu tinh xua
TTITLE2=Khu pho ngay xua
TTITLE3=Nua dem thuong nho
TTITLE4=Bong nho duong chieu
TTITLE5=Duong ve khuya
TTITLE6=Mua dem ngoai o
TTITLE7=Dam cuoi ngheo
TTITLE8=Khong phai tai chung minh
TTITLE9=Ky niem buon
EXTD=
EXTT0=
EXTT1=
EXTT2=
EXTT3=
EXTT4=
EXTT5=
EXTT6=
EXTT7=
EXTT8=
EXTT9=
PLAYORDER=
